<?xml version="1.0" standalone="no"?>
<!DOCTYPE svg PUBLIC "-//W3C//DTD SVG 20010904//EN"
 "http://www.w3.org/TR/2001/REC-SVG-20010904/DTD/svg10.dtd">
<svg version="1.0" xmlns="http://www.w3.org/2000/svg"
 width="300.000000pt" height="200.000000pt" viewBox="0 0 300.000000 200.000000"
 preserveAspectRatio="xMidYMid meet">
<metadata>
Created by potrace 1.10, written by Peter Selinger 2001-2011
</metadata>
<g transform="translate(0.000000,200.000000) scale(0.100000,-0.100000)"
fill="#000000" stroke="none">
<path d="M314 1962 c2 -24 9 -48 16 -55 10 -10 11 -5 5 23 -13 62 -25 80 -21
32z"/>
<path d="M120 1902 c0 -41 4 -72 10 -72 17 0 17 117 -1 135 -5 5 -9 -18 -9
-63z"/>
<path d="M1476 1700 c-16 -5 -33 -7 -38 -4 -5 3 -21 3 -35 -1 -19 -4 -23 -9
-15 -17 8 -8 15 -8 27 2 12 10 15 10 15 -4 0 -10 4 -15 9 -12 5 4 12 0 14 -6
4 -10 8 -10 15 1 8 11 12 10 21 -5 11 -17 11 -17 9 6 -2 16 2 24 10 22 25 -5
107 -13 145 -15 20 0 37 -5 37 -10 0 -5 -21 -7 -47 -4 -27 3 -41 2 -32 -3 8
-5 33 -11 56 -13 23 -3 47 -8 52 -12 6 -3 18 -2 27 3 15 8 15 11 -5 31 -12 12
-26 19 -30 16 -5 -2 -11 2 -15 10 -3 8 -10 15 -16 15 -6 0 -8 -4 -5 -10 8 -13
-7 -13 -41 0 -40 15 -124 20 -158 10z"/>
<path d="M1287 1670 c-15 -5 -43 -21 -61 -37 -18 -15 -43 -36 -55 -45 -28 -23
-28 -73 -1 -88 11 -6 24 -8 29 -5 5 3 21 0 35 -6 20 -10 30 -8 60 11 20 12 36
17 36 12 0 -13 24 -10 43 6 8 7 23 9 32 5 13 -4 16 -3 11 6 -5 7 -17 11 -27 8
-10 -3 -20 0 -23 7 -3 7 -5 7 -5 -2 -1 -8 -9 -10 -25 -6 -13 3 -27 1 -30 -5
-8 -12 -48 -14 -83 -5 -22 6 -42 36 -20 31 7 -1 11 8 9 23 -2 20 -1 22 7 10 7
-10 11 -11 11 -3 0 7 7 10 17 6 11 -4 14 -3 9 5 -4 7 -2 12 5 12 8 0 9 3 0 13
-6 8 -8 17 -4 20 11 12 51 8 56 -5 3 -7 6 -1 6 15 1 15 0 27 -1 26 -2 0 -16
-4 -31 -9z"/>
<path d="M1336 1671 c-3 -5 12 -20 34 -35 22 -14 40 -21 40 -16 0 6 6 8 13 4
6 -4 5 1 -4 10 -9 9 -26 18 -38 19 -13 1 -20 6 -17 14 6 14 -20 18 -28 4z"/>
<path d="M1564 1599 c14 -11 26 -27 26 -35 0 -11 6 -13 23 -9 31 10 49 29 19
22 -15 -3 -32 3 -51 19 -16 13 -32 24 -36 24 -4 0 4 -9 19 -21z"/>
<path d="M1741 1607 c-8 -11 -4 -20 19 -40 17 -15 30 -36 30 -46 0 -11 5 -23
10 -26 6 -3 10 -19 10 -34 0 -15 6 -33 13 -40 10 -11 10 -13 0 -7 -7 4 -13 2
-13 -3 0 -6 5 -11 12 -11 7 0 5 -7 -5 -18 -13 -15 -15 -25 -7 -52 10 -35 5
-56 -6 -26 -3 9 -10 14 -15 11 -4 -3 -6 -11 -3 -18 2 -7 -5 -22 -16 -32 -20
-18 -21 -18 -43 2 -32 29 -66 45 -79 37 -20 -13 -62 -13 -70 -1 -5 7 -8 1 -8
-15 0 -19 -5 -28 -16 -28 -10 0 -13 -6 -10 -17 3 -10 1 -25 -5 -33 -8 -12 -9
-9 -4 9 5 16 4 21 -4 17 -6 -4 -11 -16 -11 -27 0 -10 -3 -19 -7 -19 -12 0 -33
-51 -33 -78 0 -14 4 -21 11 -17 6 4 8 12 6 19 -3 7 5 13 16 14 12 0 24 7 26
14 3 7 14 39 26 72 l20 58 52 4 c47 4 54 2 69 -21 14 -22 15 -32 6 -64 -15
-49 -41 -71 -91 -78 -41 -6 -53 -16 -28 -26 7 -3 24 1 38 9 43 24 47 19 42
-48 -4 -47 -1 -68 11 -83 14 -19 15 -16 16 41 0 47 5 69 23 95 65 96 114 206
126 279 15 99 -2 189 -34 177 -14 -6 -39 39 -30 54 9 14 -31 11 -44 -4z"/>
<path d="M1471 1448 c-4 -12 -6 -31 -3 -41 5 -18 6 -18 14 -2 13 23 17 65 6
65 -5 0 -12 -10 -17 -22z"/>
<path d="M1183 1406 c-7 -14 -8 -28 -1 -45 6 -16 6 -27 0 -29 -6 -2 -8 -12 -5
-23 7 -26 28 -18 27 9 0 18 2 20 14 9 13 -10 14 -9 2 13 -7 14 -16 39 -20 55
-6 28 -7 29 -17 11z"/>
<path d="M1232 1363 c2 -14 16 -18 65 -19 34 -2 71 -7 82 -14 16 -8 19 -8 16
2 -10 25 -66 48 -117 48 -41 0 -49 -3 -46 -17z"/>
<path d="M1120 1351 c-7 -13 -7 -22 0 -26 5 -3 11 -21 11 -38 l1 -32 7 35 c4
19 11 45 15 58 9 28 -18 31 -34 3z"/>
<path d="M1280 1289 c0 -23 16 -33 24 -14 6 16 46 21 46 6 0 -16 -23 -26 -28
-12 -2 7 -11 -3 -21 -21 -19 -38 -49 -48 -68 -22 -14 20 -16 10 -4 -21 5 -11
4 -25 -1 -32 -8 -9 -6 -13 5 -13 9 0 19 9 22 20 3 11 12 20 20 20 7 0 20 11
29 25 9 14 21 25 27 25 6 0 23 9 37 20 23 18 35 20 111 15 58 -3 77 -2 59 4
-16 5 -80 11 -143 14 -106 4 -115 3 -115 -14z"/>
<path d="M1632 1235 c-12 -14 -22 -32 -22 -39 0 -8 -4 -18 -10 -21 -18 -11
-11 -23 10 -18 11 3 17 9 14 14 -3 5 0 9 5 9 6 0 11 7 11 15 0 8 5 15 12 15 9
0 9 3 0 12 -9 9 -7 14 6 24 9 8 12 14 6 14 -6 0 -20 -11 -32 -25z"/>
<path d="M1136 1195 c4 -8 10 -15 15 -15 5 0 7 -17 6 -37 -2 -36 -1 -38 33
-41 19 -2 47 -13 62 -23 28 -20 28 -20 28 -1 0 12 -18 34 -42 53 -60 46 -66
51 -45 44 33 -13 17 6 -18 21 -43 18 -46 18 -39 -1z m80 -70 c19 -14 19 -14
-2 -15 -11 0 -29 7 -40 15 -19 14 -19 14 2 15 11 0 29 -7 40 -15z"/>
<path d="M1164 1059 c4 -13 7 -38 7 -55 -1 -18 6 -37 16 -46 20 -17 120 -32
128 -18 3 4 14 6 25 3 11 -3 20 -1 20 4 0 5 -35 15 -78 22 -87 14 -116 36 -86
66 18 18 18 17 -15 35 -23 12 -24 11 -17 -11z"/>
<path d="M1386 979 c-25 -24 -14 -36 19 -21 14 7 34 12 45 12 10 0 22 5 26 11
5 9 -3 10 -29 5 -19 -4 -37 -3 -39 2 -1 5 -12 1 -22 -9z"/>
<path d="M1217 889 c-45 -24 -44 -34 2 -18 38 13 115 4 131 -17 9 -9 10 -31 6
-64 -6 -45 -4 -53 19 -76 40 -40 109 -31 210 27 86 48 174 122 162 135 -4 4
-26 -11 -49 -34 -22 -23 -48 -42 -57 -42 -9 0 -35 -13 -57 -29 -21 -15 -61
-35 -88 -44 -49 -17 -49 -17 -82 8 -31 24 -33 29 -28 69 6 40 4 45 -22 62 -16
10 -33 24 -37 31 -12 19 -67 15 -110 -8z"/>
<path d="M1796 883 c-4 -11 -27 -40 -51 -65 l-46 -45 43 -28 c101 -67 115 -75
124 -75 16 0 58 -50 90 -105 l29 -50 3 -235 c2 -250 5 -280 25 -280 18 0 15
470 -3 526 -16 48 -44 90 -87 129 -18 17 -33 35 -33 41 0 5 -14 14 -32 19 -42
13 -49 35 -11 35 31 0 121 -44 140 -69 8 -10 12 -11 13 -4 0 7 -14 28 -31 48
-29 33 -34 35 -94 35 -35 0 -76 5 -91 10 -26 10 -26 11 -8 24 10 8 21 11 24 7
4 -7 53 -16 128 -25 25 -3 122 -92 122 -113 0 -6 12 -25 26 -40 14 -15 31 -39
36 -53 20 -50 43 -228 53 -405 3 -60 8 -119 10 -130 2 -11 4 -23 4 -27 1 -5 8
-8 17 -8 13 0 14 15 9 112 -8 156 -24 317 -35 353 -4 17 -11 46 -14 66 -10 56
-82 155 -161 218 -104 85 -168 127 -173 113 -2 -7 -8 -12 -14 -12 -6 0 -5 6 2
15 9 11 10 19 3 26 -8 8 -13 5 -17 -8z m73 -67 c10 -12 8 -14 -15 -12 -16 2
-30 8 -32 15 -5 16 33 14 47 -3z"/>
<path d="M1863 548 c-32 -36 -63 -103 -74 -165 -12 -64 0 -129 32 -174 13 -19
16 -30 8 -34 -7 -5 -9 -21 -5 -44 4 -20 7 -45 9 -56 1 -11 9 -27 18 -35 9 -8
18 -22 22 -30 3 -10 6 -6 6 9 1 14 -7 33 -16 44 -13 13 -18 38 -19 81 -3 101
-4 106 -16 103 -6 -1 -16 13 -21 31 -17 56 25 211 68 252 25 24 32 40 17 40
-5 0 -18 -10 -29 -22z"/>
<path d="M2211 490 c1 -26 25 -84 31 -74 3 5 -3 27 -13 49 -10 22 -18 33 -18
25z"/>
<path d="M1936 425 c-20 -31 -47 -115 -37 -115 8 0 62 132 57 137 -2 2 -11 -8
-20 -22z"/>
<path d="M1256 338 c-19 -27 -20 -61 -5 -91 23 -43 48 -43 68 -1 34 76 -20
154 -63 92z m42 -15 c11 -21 5 -46 -9 -37 -14 8 -11 -3 6 -19 12 -13 12 -16
-6 -20 -12 -3 -18 -3 -15 0 3 3 -2 12 -12 20 -9 8 -11 12 -4 8 8 -4 12 4 12
29 0 38 14 47 28 19z"/>
<path d="M1620 303 c0 -5 12 -15 28 -24 15 -9 44 -26 65 -38 56 -35 44 -19
-22 28 -60 42 -71 47 -71 34z"/>
<path d="M1078 267 c-5 -10 -8 -40 -8 -65 1 -37 3 -43 11 -29 5 9 9 39 7 65
-2 32 -5 41 -10 29z"/>
<path d="M1927 248 c-13 -18 -33 -46 -43 -63 l-18 -30 25 23 c24 21 76 102 65
102 -3 0 -16 -15 -29 -32z"/>
<path d="M1190 158 c0 -7 30 -27 65 -43 36 -17 65 -28 65 -25 0 10 -35 40 -46
40 -5 0 -26 9 -47 20 -25 14 -37 16 -37 8z"/>
<path d="M1276 158 c6 -16 74 -49 74 -37 0 5 -18 18 -40 29 -24 12 -37 15 -34
8z"/>
<path d="M1051 74 c-12 -25 -20 -53 -18 -63 2 -10 7 -6 12 14 4 17 16 41 27
54 20 26 23 41 9 41 -5 0 -19 -21 -30 -46z"/>
</g>
</svg>
